#!OML:ASF H:\ManfredETheater\Project 1\Capture day 1\Session 1\subject.ASF
:FULLY-SPECIFIED
:DEGREES
106
root 0.010781 16.7862 -6.07202 -186.192 0.171622 -183.834
lowerback 11.0203 0.387966 -1.61543
upperback -2.0629 0.406167 1.29257
thorax -8.41774 0.317041 2.21268
lowerneck -19.7219 -1.5094 -3.22674
upperneck 12.9489 -1.28092 0.705074
head 7.21907 -0.712956 0.601852
rclavicle -1.68967e-015 3.02153e-014
rhumerus -47.7531 1.96019 -86.3373
rradius 79.1185
rwrist 2.11737
rhand -26.3552 6.2068
rfingers 7.12502
rthumb 0.202703 -23.7728
lclavicle -1.68967e-015 3.02153e-014
lhumerus -48.1166 -2.44437 92.2875
lradius 60.4087
lwrist 2.438
lhand -31.0716 -12.5739
lfingers 7.12502
lthumb -4.35225 17.3614
rfemur -36.2578 -7.54987 16.4159
rtibia 53.3383
rfoot -7.77066 -2.07189
rtoes -34.1219
lfemur -19.7521 -1.79042 -28.3317
ltibia 56.2046
lfoot -23.6102 2.96192
ltoes 8.54722
107
root 0.0515173 16.8165 -6.30546 -185.814 -0.281682 -183.851
lowerback 10.7555 0.215796 -1.75136
upperback -2.16555 0.141956 1.28453
thorax -8.36274 0.187983 2.32923
lowerneck -19.8754 -1.50277 -3.21733
upperneck 12.9895 -1.27189 0.725257
head 7.25777 -0.706018 0.607318
rclavicle 7.95139e-016 0
rhumerus -47.9929 1.96054 -85.9385
rradius 79.131
rwrist 1.92476
rhand -26.4264 5.97636
rfingers 7.12502
rthumb 0.133958 -24.0033
lclavicle 7.95139e-016 0
lhumerus -47.8784 -3.67571 92.8672
lradius 62.1491
lwrist 2.00948
lhand -31.0954 -12.8195
lfingers 7.12502
lthumb -4.37527 17.1153
rfemur -36.3088 -6.88115 16.1931
rtibia 50.1396
rfoot -4.86665 -1.26048
rtoes -31.732
lfemur -18.9602 -1.94847 -28.2824
ltibia 55.6102
lfoot -23.989 2.82484
ltoes 8.62346
108
root 0.092739 16.854 -6.53682 -185.426 -0.794322 -183.841
lowerback 10.4709 0.0228802 -1.87315
upperback -2.28026 -0.128491 1.28153
thorax -8.30741 0.0631085 2.4413
lowerneck -19.9833 -1.51232 -3.22641
upperneck 13.0263 -1.28296 0.753934
head 7.2883 -0.708899 0.616399
rclavicle -4.96962e-016 -1.51076e-014
rhumerus -48.234 1.96329 -85.5349
rradius 79.1525
rwrist 1.61803
rhand -26.5284 5.71121
rfingers 7.12502
rthumb 0.0354086 -24.2685
lclavicle -4.96962e-016 -1.51076e-014
lhumerus -47.6484 -4.84038 93.366
lradius 63.8237
lwrist 1.82692
lhand -31.0973 -13.0213
lfingers 7.12502
lthumb -4.37708 16.9135
rfemur -36.2481 -6.30584 16
rtibia 47.1897
rfoot -1.97928 -0.697452
rtoes -28.5416
lfemur -18.2127 -2.08234 -28.1869
ltibia 55.0902
lfoot -24.3745 2.63993
ltoes 8.62831
109
root 0.135096 16.8823 -6.76728 -185.038 -1.35765 -183.805
lowerback 10.1823 -0.174602 -1.97881
upperback -2.40572 -0.402759 1.28217
thorax -8.25975 -0.064563 2.54701
lowerneck -20.0256 -1.54022 -3.24982
upperneck 13.0423 -1.31742 0.782651
head 7.30166 -0.723712 0.625322
rclavicle -2.98177e-015 1.74931e-014
rhumerus -48.4811 1.9615 -85.1247
rradius 79.1835
rwrist 1.26077
rhand -26.6437 5.42525
rfingers 7.12502
rthumb -0.0759435 -24.5545
lclavicle -2.98177e-015 1.74931e-014
lhumerus -47.4183 -5.9328 93.7906
lradius 65.4224
lwrist 1.86487
lhand -31.0676 -13.1626
lfingers 7.12502
lthumb -4.34841 16.7728
rfemur -36.1667 -5.83949 15.8603
rtibia 44.6517
rfoot 0.666989 -0.430702
rtoes -24.5782
lfemur -17.5495 -2.1917 -28.0464
ltibia 54.7111
lfoot -24.7773 2.40673
ltoes 8.58557
110
root 0.178277 16.9018 -6.99581 -184.652 -1.97307 -183.756
lowerback 9.89453 -0.375711 -2.0763
upperback -2.53936 -0.681182 1.2822
thorax -8.22003 -0.1949 2.64641
lowerneck -20.0071 -1.58425 -3.29252
upperneck 13.0329 -1.37208 0.819418
head 7.2972 -0.748358 0.63789
rclavicle 9.93923e-017 2.70347e-014
rhumerus -48.7328 1.94853 -84.7064
rradius 79.2242
rwrist 0.927226
rhand -26.762 5.13867
rfingers 7.12502
rthumb -0.190172 -24.841
lclavicle 9.93923e-017 2.70347e-014
lhumerus -47.1717 -6.9444 94.1463
lradius 66.9307
lwrist 2.06598
lhand -31.0147 -13.2538
lfingers 7.12502
lthumb -4.29732 16.6826
rfemur -36.0668 -5.51062 15.7822
rtibia 42.5559
rfoot 2.87169 -0.462243
rtoes -20.2408
lfemur -16.9549 -2.29625 -27.8719
ltibia 54.4302
lfoot -25.1596 2.12489
ltoes 8.47677
111
root 0.222019 16.9134 -7.22107 -184.286 -2.61022 -183.693
lowerback 9.6368 -0.572052 -2.16156
upperback -2.67656 -0.952573 1.28165
thorax -8.201 -0.322422 2.73601
lowerneck -19.9298 -1.64125 -3.34248
upperneck 12.994 -1.4443 0.854566
head 7.2737 -0.781898 0.649323
rclavicle -3.8763e-015 2.8625e-014
rhumerus -48.9863 1.92405 -84.2833
rradius 79.269
rwrist 0.677101
rhand -26.8723 4.89026
rfingers 7.12502
rthumb -0.296734 -25.0893
lclavicle -3.8763e-015 2.8625e-014
lhumerus -46.8992 -7.86349 94.4347
lradius 68.3429
lwrist 2.36966
lhand -30.9488 -13.321
lfingers 7.12502
lthumb -4.23371 16.6167
rfemur -35.9721 -5.31352 15.7895
rtibia 41.0094
rfoot 4.44448 -0.783862
rtoes -15.9953
lfemur -16.4296 -2.39529 -27.6573
ltibia 54.2866
lfoot -25.5359 1.79581
ltoes 8.32566
112
root 0.265714 16.9182 -7.44188 -183.957 -3.25126 -183.622
lowerback 9.43095 -0.75673 -2.23557
upperback -2.80575 -1.2084 1.27542
thorax -8.20378 -0.442928 2.8103
lowerneck -19.788 -1.71092 -3.39622
upperneck 12.9049 -1.53511 0.889778
head 7.22349 -0.824359 0.659623
rclavicle 1.05356e-014 2.46493e-014
rhumerus -49.2271 1.88587 -83.8565
rradius 79.3124
rwrist 0.545398
rhand -26.9662 4.70287
rfingers 7.12502
rthumb -0.387437 -25.2765
lclavicle 1.05356e-014 2.46493e-014
lhumerus -46.5812 -8.68459 94.6583
lradius 69.648
lwrist 2.70531
lhand -30.8815 -13.3958
lfingers 7.12502
lthumb -4.16869 16.5432
rfemur -35.8348 -5.23934 15.8778
rtibia 39.9511
rfoot 5.32848 -1.34212
rtoes -12.2892
lfemur -15.9331 -2.50417 -27.4141
ltibia 54.2238
lfoot -25.8626 1.43251
ltoes 8.08434
113
root 0.308817 16.917 -7.65718 -183.676 -3.87116 -183.553
lowerback 9.29185 -0.922799 -2.30136
upperback -2.91837 -1.43991 1.2609
thorax -8.22868 -0.551904 2.86772
lowerneck -19.6081 -1.78796 -3.45516
upperneck 12.7801 -1.63806 0.937583
head 7.15575 -0.871569 0.673854
rclavicle 5.06901e-015 -2.46493e-014
rhumerus -49.4417 1.83548 -83.4311
rradius 79.3468
rwrist 0.553918
rhand -27.0423 4.59353
rfingers 7.12502
rthumb -0.460941 -25.3857
lclavicle 5.06901e-015 -2.46493e-014
lhumerus -46.2048 -9.39029 94.8186
lradius 70.8472
lwrist 2.99147
lhand -30.8364 -13.4553
lfingers 7.12502
lthumb -4.12515 16.4845
rfemur -35.6773 -5.23416 16.0236
rtibia 39.411
rfoot 5.49635 -2.07837
rtoes -9.43841
lfemur -15.4704 -2.63025 -27.1523
ltibia 54.2782
lfoot -26.1613 1.05879
ltoes 7.71723
